<svg version="1.1" xmlns="http://www.w3.org/2000/svg" xmlns:xlink="http://www.w3.org/1999/xlink" width="26" height="26" viewBox="0 0 26 26">
	<path d="
		M 15.5,1
		a 2.5,2.5 0 0,1 2.5,2.5
		v 0.5
		h 5
		v 2
		h -20
		v -2
		h 5
		v -0.5
		a 2.5,2.5 0 0,1 2.5,-2.5
		Z
		
		M 10,4
		h 6
		v -0.5
		a 0.5,0.5 0 0,0 -0.5,-0.5
		h -5
		a 0.5,0.5 0 0,0 -0.5,0.5
		Z
	" fill="#000" />
	
	<path d="
		M 5,7
		h 16
		v 15.5
		a 2.5,2.5 0 0,1 -2.5,2.5
		h -11
		a 2.5,2.5 0 0,1 -2.5,-2.5
		Z
		
		M 8,9
		v 13
		h 2
		v -13
		Z
		
		m 4,0
		v 13
		h 2
		v -13
		Z
		
		m 4,0
		v 13
		h 2
		v -13
		Z
	" fill="#000" />
</svg>