<svg version="1.1" xmlns="http://www.w3.org/2000/svg" xmlns:xlink="http://www.w3.org/1999/xlink" width="26" height="26" viewBox="0 0 26 26">
	<polygon points="13,22 7,22 7,18 5,18 5,17.5 7.5,15 10,17.5 10,18 8,18 8,21 13,21" fill="#000" />
	
	<polygon points="15,4 20,4 20,10 22,10 22,10.5 19.5,13 17,10.5 17,10 19,10 19,5 15,5" fill="#000" />
	
	<path d="M 14.5,14.5  L 24.5,14.5  L 24.5,24.5  L 14.5,24.5  Z" fill="none" stroke="#000" stroke-width="1" />
	
	<path d="
		M 17.5,16
		L 17.5,23
		
		M 17.5,22.5
		L 20.5,22.5
		C 22,22 22,20 20.5,19.5
		C 22,19 21.5,16.5 20,16.5
		L 17.5,16.5
		
		M 20.5,19.5
		L 17.5,19.5
	" fill="none" stroke="#000" stroke-width="1" />
	
	<mask id="A_LETTER">
		<rect x="0" y="0" width="26" height="26" fill="#FFF" />
		<path d="
			M 5.5,11
			L 5.5,6
			C 5.5,4 9.5,4 9.5,6
			L 9.5,11
			
			M 5.5,7.5
			L 9.5,7.5
		" fill="none" stroke="#000" stroke-width="1" />
	</mask>
	
	<circle cx="7.5" cy="7.5" r="6.25" mask="url(#A_LETTER)" />
</svg>