<svg version="1.1" xmlns="http://www.w3.org/2000/svg" xmlns:xlink="http://www.w3.org/1999/xlink" width="26" height="26" viewBox="0 0 26 26">
	<polygon points="1,1 6,1 6,3 3,3 3,6 1,6" fill="#000" />
	<rect x="8" y="1" width="2" height="2" fill="#000" />
	<rect x="12" y="1" width="2" height="2" fill="#000" />
	<rect x="16" y="1" width="2" height="2" fill="#000" />
	<polygon points="20,1 25,1 25,6 23,6 23,3 20,3" fill="#000" />
	<rect x="23" y="8" width="2" height="2" fill="#000" />
	<rect x="23" y="12" width="2" height="2" fill="#000" />
	<rect x="23" y="16" width="2" height="2" fill="#000" />
	<polygon points="20,23 23,23 23,20 25,20 25,25 20,25" fill="#000" />
	<rect x="8" y="23" width="2" height="2" fill="#000" />
	<rect x="12" y="23" width="2" height="2" fill="#000" />
	<rect x="16" y="23" width="2" height="2" fill="#000" />
	<polygon points="1,20 3,20 3,23 6,23 6,25 1,25" fill="#000" />
	<rect x="1" y="8" width="2" height="2" fill="#000" />
	<rect x="1" y="12" width="2" height="2" fill="#000" />
	<rect x="1" y="16" width="2" height="2" fill="#000" />
	<polygon points="12,10 14,10 14,12 16,12 16,14 14,14 14,16 12,16 12,14 10,14 10,12 12,12" fill="#000" />
</svg>